<?xml version="1.0" encoding="UTF-8" standalone="no"?>
<!DOCTYPE svg PUBLIC "-//W3C//DTD SVG 1.1//EN" "http://www.w3.org/Graphics/SVG/1.1/DTD/svg11.dtd">
<svg version="1.1" xmlns="http://www.w3.org/2000/svg" xmlns:xlink="http://www.w3.org/1999/xlink" preserveAspectRatio="xMidYMid meet" viewBox="3.28860519886436 11.368421052631618 258.670595146148 187.11392214441722" width="254" height="184"><defs><path d="M53.67 100.65L4.29 87.68L120.5 87.68L120.5 100.65L53.67 100.65ZM34.71 84.69L78.1 12.37L78.1 84.69L34.71 84.69ZM82.3 84.69L82.3 39.8L109.23 84.69L82.3 84.69Z" id="boKp2Ser5"></path><path d="M90.29 140.73L29.06 124.65L173.16 124.65L173.16 140.73L90.29 140.73ZM66.78 120.94L120.59 31.26L120.59 120.94L66.78 120.94ZM125.8 120.94L125.8 65.28L159.19 120.94L125.8 120.94Z" id="b4cr4pM2Hn"></path><path d="M140.78 195.48L53.48 172.55L258.96 172.55L258.96 195.48L140.78 195.48ZM107.27 167.26L184 39.39L184 167.26L107.27 167.26ZM191.42 167.26L191.42 87.89L239.04 167.26L191.42 167.26Z" id="i66EfYV1d1"></path><path d="M159.23 122.47L159.28 122.48L159.34 122.49L159.39 122.5L159.44 122.52L159.49 122.54L159.54 122.56L159.59 122.59L159.64 122.61L159.68 122.64L159.73 122.68L159.77 122.71L159.81 122.75L159.85 122.79L159.89 122.83L159.92 122.87L159.96 122.92L159.99 122.96L160.02 123.01L160.04 123.06L160.07 123.12L160.09 123.17L160.11 123.22L160.13 123.28L160.14 123.34L160.16 123.4L160.17 123.46L160.17 123.52L160.18 123.58L160.18 123.64L160.18 123.65L160.18 123.67L160.18 123.69L160.18 123.71L160.18 123.78L160.18 123.82L160.18 123.84L160.18 123.86L160.18 123.89L160.18 123.91L160.18 123.93L160.18 123.94L160.18 123.94L160.18 123.98L160.18 124.02L160.18 124.05L160.17 124.09L160.17 124.12L160.17 124.15L160.16 124.19L160.16 124.22L160.16 124.25L160.15 124.29L160.15 124.32L160.14 124.35L160.14 124.38L160.13 124.41L160.13 124.44L160.12 124.48L160.11 124.51L160.11 124.54L160.1 124.57L160.09 124.66L160.08 124.69L160.07 124.73L160.07 124.76L160.06 124.79L160.06 124.82L160.05 124.85L160.05 124.89L160.04 124.92L160.04 124.95L160.02 125.1L160.01 125.17L160 125.23L160 125.3L159.99 125.37L159.98 125.44L159.97 125.5L159.96 125.57L159.96 125.63L159.95 125.7L159.95 125.76L159.94 125.82L159.93 125.89L159.93 125.95L159.92 126.01L159.92 126.07L159.92 126.13L159.91 126.19L159.91 126.25L159.91 126.31L159.9 126.37L159.9 126.43L159.9 126.49L159.9 126.54L159.9 126.6L159.9 126.66L159.91 126.71L159.91 126.77L159.91 126.82L159.92 126.88L159.92 126.91L159.93 126.93L159.93 126.96L159.94 126.98L159.95 127.01L159.95 127.03L159.96 127.05L159.97 127.07L159.98 127.09L159.99 127.11L160 127.13L160.01 127.14L160.02 127.16L160.04 127.18L160.05 127.19L160.06 127.21L160.07 127.23L160.09 127.24L160.1 127.25L160.11 127.27L160.13 127.28L160.14 127.3L160.15 127.31L160.17 127.32L160.18 127.33L160.2 127.35L160.22 127.37L160.24 127.38L160.25 127.4L160.26 127.41L160.27 127.45L160.27 127.49L160.27 127.53L160.27 127.56L160.27 127.61L160.28 127.67L160.28 127.72L160.28 127.77L160.28 127.81L160.29 127.84L160.29 127.86L160.29 127.88L160.61 127.92L160.94 127.96L161.26 128.01L161.58 128.06L161.9 128.12L162.22 128.2L162.53 128.27L162.84 128.36L163.15 128.45L163.46 128.55L163.76 128.66L164.07 128.77L164.36 128.89L164.66 129.02L164.95 129.15L165.24 129.29L165.53 129.44L165.81 129.59L166.09 129.75L166.36 129.92L166.63 130.09L166.9 130.27L167.16 130.45L167.42 130.64L167.68 130.84L167.93 131.04L168.17 131.25L168.41 131.47L168.65 131.69L168.88 131.91L169.1 132.14L169.51 131.85L169.52 131.86L169.53 131.86L169.57 131.86L169.6 131.86L169.62 131.86L169.64 131.86L169.66 131.86L169.68 131.87L169.7 131.87L169.72 131.87L169.75 131.87L169.77 131.87L169.79 131.87L169.81 131.87L169.84 131.87L169.86 131.86L169.88 131.86L169.91 131.86L169.93 131.86L169.95 131.85L169.98 131.85L170 131.84L170.02 131.84L170.04 131.83L170.07 131.82L170.09 131.81L170.11 131.81L170.13 131.79L170.15 131.78L170.2 131.75L170.24 131.72L170.29 131.69L170.33 131.65L170.38 131.62L170.42 131.58L170.47 131.55L170.51 131.51L170.56 131.47L170.6 131.44L170.65 131.4L170.69 131.36L170.73 131.32L170.78 131.28L170.82 131.24L170.87 131.19L170.91 131.15L170.96 131.11L171.01 131.06L171.05 131.02L171.1 130.97L171.14 130.93L171.19 130.88L171.24 130.83L171.29 130.79L171.33 130.74L171.38 130.69L171.43 130.64L171.48 130.59L171.58 130.49L171.6 130.46L171.63 130.44L171.65 130.42L171.67 130.39L171.69 130.37L171.71 130.34L171.74 130.32L171.76 130.29L171.78 130.27L171.82 130.22L171.84 130.2L171.86 130.17L171.88 130.15L171.9 130.13L171.93 130.1L171.95 130.08L171.97 130.05L171.99 130.03L172.01 130.01L172.03 129.98L172.06 129.96L172.08 129.94L172.1 129.91L172.13 129.89L172.15 129.87L172.18 129.84L172.2 129.82L172.23 129.79L172.25 129.77L172.28 129.75L172.29 129.74L172.29 129.74L172.31 129.72L172.32 129.72L172.34 129.7L172.35 129.69L172.38 129.67L172.41 129.64L172.46 129.61L172.5 129.58L172.52 129.56L172.57 129.52L172.62 129.49L172.67 129.45L172.72 129.42L172.78 129.4L172.83 129.37L172.89 129.35L172.94 129.33L173 129.32L173.05 129.3L173.11 129.29L173.17 129.29L173.22 129.28L173.28 129.28L173.34 129.28L173.39 129.28L173.45 129.29L173.5 129.3L173.55 129.31L173.61 129.32L173.66 129.34L173.71 129.36L173.76 129.38L173.81 129.41L173.85 129.43L173.9 129.46L173.94 129.5L173.99 129.53L174.03 129.57L174.06 129.61L174.1 129.65L174.14 129.7L174.17 129.75L174.19 129.79L174.22 129.84L174.24 129.89L174.26 129.94L174.28 130L174.29 130.05L174.3 130.1L174.31 130.15L174.31 130.21L174.31 130.26L174.31 130.32L174.31 130.37L174.3 130.43L174.29 130.48L174.28 130.54L174.27 130.59L174.25 130.65L174.23 130.7L174.21 130.75L174.18 130.8L174.15 130.85L174.12 130.9L174.09 130.95L174.06 131L174.02 131.05L173.98 131.09L173.93 131.14L173.89 131.18L173.84 131.22L173.83 131.23L173.81 131.24L173.8 131.25L173.79 131.26L173.73 131.31L173.72 131.32L173.7 131.33L173.69 131.34L173.67 131.36L173.65 131.38L173.64 131.38L173.63 131.39L173.62 131.4L173.61 131.41L173.58 131.43L173.55 131.45L173.52 131.47L173.49 131.49L173.46 131.51L173.43 131.53L173.4 131.54L173.38 131.56L173.35 131.58L173.32 131.6L173.29 131.61L173.26 131.63L173.24 131.64L173.21 131.66L173.18 131.67L173.15 131.69L173.12 131.7L173.09 131.72L173.07 131.73L173.01 131.76L172.98 131.78L172.95 131.79L172.93 131.81L172.9 131.83L172.87 131.84L172.84 131.86L172.81 131.87L172.78 131.89L172.75 131.91L172.72 131.92L172.66 131.96L172.6 132L172.54 132.03L172.48 132.07L172.43 132.11L172.37 132.14L172.31 132.18L172.25 132.21L172.2 132.25L172.14 132.29L172.09 132.32L172.04 132.36L171.98 132.39L171.93 132.42L171.88 132.46L171.83 132.49L171.78 132.53L171.73 132.56L171.68 132.6L171.63 132.63L171.58 132.67L171.54 132.7L171.49 132.74L171.44 132.77L171.4 132.81L171.36 132.85L171.31 132.88L171.27 132.92L171.23 132.96L171.19 132.99L171.15 133.03L171.13 133.05L171.11 133.07L171.09 133.09L171.08 133.11L171.07 133.13L171.05 133.15L171.04 133.17L171.03 133.19L171.02 133.21L171.01 133.23L171 133.25L171 133.27L170.99 133.29L170.99 133.31L170.98 133.33L170.98 133.35L170.97 133.37L170.97 133.39L170.97 133.41L170.96 133.43L170.96 133.45L170.96 133.46L170.96 133.48L170.96 133.5L170.95 133.52L170.95 133.54L170.95 133.58L170.95 133.6L170.95 133.61L170.95 133.63L170.92 133.65L170.91 133.67L170.89 133.69L170.86 133.71L170.84 133.73L170.71 133.84L170.7 133.85L170.66 133.89L170.62 133.93L170.58 133.96L170.57 133.97L170.66 134.1L170.74 134.24L170.83 134.37L170.91 134.51L170.99 134.64L171.07 134.78L171.15 134.92L171.23 135.06L171.31 135.2L171.38 135.34L171.45 135.49L171.53 135.63L171.59 135.78L171.66 135.92L171.73 136.07L171.79 136.22L171.86 136.37L171.92 136.52L171.98 136.67L172.04 136.83L172.09 136.98L172.15 137.13L172.2 137.29L172.25 137.45L172.3 137.6L172.35 137.76L172.39 137.92L172.44 138.08L172.48 138.24L172.52 138.41L172.56 138.57L172.59 138.73L172.63 138.89L172.66 139.05L172.69 139.22L172.72 139.38L172.75 139.54L172.77 139.7L172.79 139.86L172.81 140.03L172.83 140.19L172.85 140.35L172.86 140.51L172.87 140.67L172.89 140.83L172.89 140.99L172.9 141.15L172.91 141.31L172.91 141.47L172.91 141.63L172.91 141.79L172.91 141.95L172.9 142.11L172.9 142.27L172.89 142.43L172.88 142.58L172.87 142.74L172.85 142.9L172.84 143.06L172.82 143.21L172.8 143.37L172.78 143.53L173.21 143.65L173.22 143.66L173.23 143.69L173.25 143.71L173.26 143.73L173.27 143.74L173.29 143.76L173.3 143.78L173.31 143.79L173.32 143.81L173.33 143.83L173.35 143.85L173.36 143.86L173.38 143.88L173.39 143.9L173.41 143.92L173.42 143.93L173.44 143.95L173.46 143.97L173.47 143.98L173.49 144L173.51 144.01L173.53 144.03L173.55 144.04L173.57 144.06L173.59 144.07L173.61 144.08L173.63 144.09L173.65 144.1L173.67 144.11L173.72 144.13L173.77 144.14L173.83 144.16L173.88 144.17L173.94 144.19L173.99 144.2L174.05 144.21L174.11 144.22L174.16 144.24L174.22 144.25L174.28 144.26L174.34 144.27L174.4 144.28L174.46 144.29L174.52 144.3L174.58 144.31L174.64 144.32L174.7 144.32L174.76 144.33L174.83 144.34L174.89 144.35L174.96 144.36L175.02 144.36L175.09 144.37L175.15 144.38L175.22 144.39L175.29 144.39L175.36 144.4L175.43 144.41L175.5 144.42L175.57 144.42L175.6 144.43L175.64 144.43L175.67 144.43L175.7 144.43L175.74 144.43L175.77 144.44L175.8 144.44L175.83 144.44L175.87 144.44L175.96 144.44L175.99 144.45L176.02 144.45L176.06 144.45L176.09 144.45L176.12 144.45L176.15 144.45L176.18 144.46L176.22 144.46L176.25 144.46L176.28 144.46L176.32 144.47L176.35 144.47L176.38 144.47L176.42 144.48L176.45 144.48L176.48 144.49L176.52 144.49L176.55 144.5L176.59 144.51L176.6 144.51L176.62 144.51L176.63 144.51L176.65 144.52L176.66 144.52L176.69 144.53L176.7 144.53L176.72 144.53L176.75 144.54L176.79 144.55L176.83 144.56L176.86 144.57L176.88 144.57L176.89 144.58L176.9 144.58L176.96 144.59L177.02 144.61L177.07 144.63L177.13 144.66L177.18 144.68L177.23 144.71L177.28 144.74L177.33 144.77L177.38 144.81L177.42 144.84L177.47 144.88L177.51 144.92L177.54 144.96L177.58 145L177.61 145.05L177.65 145.09L177.68 145.14L177.7 145.19L177.73 145.23L177.75 145.28L177.77 145.33L177.78 145.39L177.8 145.44L177.81 145.49L177.81 145.54L177.82 145.6L177.82 145.65L177.82 145.71L177.82 145.76L177.81 145.82L177.8 145.87L177.78 145.93L177.77 145.98L177.75 146.03L177.72 146.08L177.7 146.13L177.67 146.17L177.64 146.22L177.61 146.26L177.57 146.3L177.54 146.34L177.5 146.38L177.46 146.41L177.41 146.45L177.37 146.48L177.32 146.51L177.27 146.54L177.23 146.56L177.17 146.58L177.12 146.6L177.07 146.62L177.01 146.64L176.96 146.65L176.9 146.66L176.84 146.67L176.79 146.67L176.73 146.68L176.67 146.68L176.61 146.67L176.55 146.67L176.49 146.66L176.43 146.65L176.42 146.65L176.41 146.64L176.39 146.64L176.38 146.64L176.36 146.63L176.34 146.63L176.31 146.62L176.26 146.61L176.23 146.61L176.22 146.6L176.19 146.6L176.18 146.59L176.16 146.59L176.15 146.59L176.14 146.58L176.12 146.58L176.12 146.58L176.08 146.57L176.05 146.56L176.01 146.55L175.98 146.54L175.95 146.53L175.91 146.52L175.88 146.51L175.85 146.5L175.82 146.48L175.79 146.47L175.76 146.46L175.73 146.45L175.7 146.44L175.67 146.42L175.64 146.41L175.61 146.4L175.58 146.39L175.55 146.37L175.52 146.36L175.49 146.35L175.46 146.34L175.44 146.32L175.41 146.31L175.38 146.3L175.35 146.29L175.32 146.27L175.29 146.26L175.26 146.25L175.23 146.24L175.19 146.22L175.16 146.21L175.1 146.19L175.03 146.16L174.96 146.14L174.9 146.12L174.83 146.09L174.77 146.07L174.7 146.05L174.64 146.03L174.58 146L174.52 145.98L174.46 145.96L174.4 145.94L174.34 145.92L174.28 145.9L174.22 145.88L174.16 145.87L174.1 145.85L174.04 145.83L173.98 145.81L173.93 145.8L173.87 145.78L173.81 145.77L173.76 145.75L173.7 145.74L173.64 145.73L173.59 145.72L173.53 145.7L173.48 145.69L173.42 145.68L173.37 145.68L173.31 145.67L173.28 145.67L173.26 145.66L173.23 145.66L173.21 145.67L173.18 145.67L173.16 145.67L173.14 145.67L173.11 145.68L173.09 145.68L173.07 145.69L173.05 145.69L173.03 145.7L173.01 145.71L172.99 145.72L172.98 145.72L172.96 145.73L172.94 145.74L172.92 145.75L172.91 145.76L172.89 145.77L172.87 145.78L172.86 145.79L172.84 145.8L172.83 145.81L172.81 145.82L172.79 145.83L172.76 145.86L172.75 145.87L172.73 145.88L172.72 145.89L172.71 145.89L172.68 145.88L172.66 145.88L172.63 145.87L172.59 145.86L172.55 145.86L172.52 145.85L172.47 145.84L172.44 145.84L172.42 145.83L172.39 145.83L172.35 145.82L172.32 145.82L172.29 145.81L172.26 145.81L172.16 146.12L172.05 146.42L171.94 146.72L171.81 147.02L171.68 147.32L171.55 147.61L171.4 147.9L171.25 148.19L171.1 148.47L170.93 148.75L170.76 149.02L170.59 149.29L170.41 149.56L170.22 149.82L170.02 150.08L169.82 150.33L169.62 150.58L169.4 150.82L169.19 151.06L168.96 151.3L168.73 151.53L168.5 151.75L168.26 151.97L168.01 152.18L167.76 152.39L167.5 152.59L167.24 152.79L166.97 152.97L166.7 153.16L166.43 153.34L166.14 153.51L166.15 153.52L166.15 153.53L166.16 153.55L166.16 153.56L166.18 153.59L166.19 153.62L166.19 153.64L166.21 153.67L166.22 153.71L166.23 153.72L166.23 153.74L166.24 153.76L166.25 153.77L166.25 153.79L166.26 153.81L166.26 153.82L166.27 153.84L166.28 153.85L166.28 153.86L166.29 153.88L166.29 153.89L166.3 153.9L166.3 153.91L166.31 153.92L166.31 153.92L166.32 153.93L166.32 153.94L166.31 153.95L166.31 153.97L166.3 153.99L166.29 154.02L166.28 154.04L166.27 154.06L166.27 154.07L166.26 154.09L166.25 154.11L166.25 154.13L166.24 154.15L166.23 154.16L166.23 154.18L166.22 154.2L166.22 154.22L166.22 154.24L166.21 154.26L166.21 154.28L166.21 154.3L166.21 154.32L166.21 154.35L166.21 154.37L166.21 154.39L166.21 154.41L166.21 154.44L166.21 154.46L166.22 154.48L166.22 154.51L166.23 154.54L166.24 154.56L166.26 154.61L166.28 154.66L166.3 154.72L166.32 154.77L166.35 154.82L166.37 154.87L166.4 154.92L166.42 154.97L166.45 155.03L166.48 155.08L166.5 155.13L166.53 155.18L166.56 155.24L166.59 155.29L166.62 155.34L166.65 155.4L166.68 155.45L166.72 155.5L166.75 155.56L166.78 155.61L166.81 155.67L166.85 155.72L166.88 155.78L166.92 155.84L166.95 155.89L166.99 155.95L167.03 156.01L167.07 156.07L167.1 156.13L167.14 156.19L167.18 156.25L167.2 156.27L167.22 156.3L167.24 156.33L167.26 156.36L167.27 156.38L167.29 156.41L167.31 156.44L167.33 156.46L167.35 156.49L167.37 156.51L167.41 156.56L167.43 156.59L167.44 156.62L167.46 156.64L167.48 156.67L167.5 156.69L167.52 156.72L167.54 156.75L167.56 156.77L167.57 156.8L167.59 156.83L167.61 156.85L167.63 156.88L167.65 156.91L167.66 156.94L167.68 156.97L167.7 157L167.72 157.03L167.73 157.06L167.75 157.09L167.75 157.1L167.76 157.12L167.77 157.13L167.78 157.15L167.79 157.17L167.8 157.19L167.81 157.21L167.82 157.23L167.83 157.26L167.84 157.27L167.86 157.33L167.88 157.35L167.89 157.38L167.91 157.44L167.93 157.49L167.95 157.55L167.97 157.61L167.98 157.67L167.99 157.72L168 157.78L168.01 157.84L168.01 157.9L168.01 157.95L168.01 158.01L168 158.07L167.99 158.12L167.98 158.18L167.97 158.23L167.95 158.28L167.93 158.34L167.91 158.39L167.89 158.43L167.87 158.48L167.84 158.53L167.81 158.57L167.78 158.62L167.74 158.66L167.7 158.7L167.66 158.73L167.62 158.77L167.58 158.8L167.53 158.83L167.49 158.86L167.44 158.89L167.39 158.91L167.33 158.93L167.28 158.95L167.23 158.96L167.17 158.97L167.12 158.98L167.06 158.98L167.01 158.98L166.96 158.98L166.9 158.98L166.85 158.97L166.79 158.96L166.74 158.95L166.69 158.93L166.64 158.91L166.59 158.89L166.53 158.87L166.48 158.84L166.44 158.81L166.39 158.78L166.34 158.75L166.3 158.71L166.25 158.67L166.21 158.63L166.17 158.59L166.13 158.54L166.1 158.5L166.06 158.45L166.03 158.4L166 158.34L165.97 158.29L165.96 158.28L165.95 158.24L165.91 158.16L165.89 158.13L165.88 158.12L165.87 158.09L165.87 158.08L165.86 158.06L165.85 158.04L165.84 158.02L165.84 158.01L165.82 157.98L165.81 157.95L165.8 157.92L165.78 157.88L165.77 157.85L165.76 157.82L165.75 157.79L165.74 157.76L165.73 157.72L165.72 157.69L165.71 157.66L165.7 157.63L165.69 157.6L165.68 157.57L165.67 157.54L165.66 157.51L165.65 157.48L165.64 157.45L165.64 157.42L165.61 157.32L165.6 157.29L165.59 157.26L165.59 157.23L165.58 157.2L165.57 157.17L165.56 157.14L165.55 157.1L165.54 157.07L165.53 157.04L165.51 156.97L165.48 156.91L165.46 156.84L165.44 156.77L165.41 156.71L165.39 156.64L165.37 156.58L165.35 156.52L165.33 156.46L165.3 156.39L165.28 156.33L165.26 156.27L165.24 156.21L165.22 156.16L165.19 156.1L165.17 156.04L165.15 155.98L165.13 155.93L165.1 155.87L165.08 155.82L165.06 155.76L165.03 155.71L165.01 155.66L164.98 155.6L164.96 155.55L164.93 155.5L164.91 155.45L164.88 155.4L164.86 155.35L164.83 155.3L164.8 155.26L164.78 155.23L164.77 155.21L164.75 155.19L164.74 155.17L164.72 155.16L164.7 155.14L164.69 155.12L164.67 155.11L164.65 155.09L164.63 155.08L164.62 155.07L164.6 155.06L164.58 155.05L164.56 155.04L164.55 155.03L164.53 155.02L164.51 155.01L164.49 155L164.47 155L164.46 154.99L164.44 154.98L164.42 154.98L164.4 154.97L164.38 154.97L164.37 154.96L164.35 154.95L164.31 154.94L164.29 154.94L164.28 154.93L164.26 154.93L164.25 154.91L164.24 154.9L164.24 154.89L164.22 154.86L164.21 154.84L164.19 154.8L164.11 154.66L164.09 154.63L164.07 154.58L164.05 154.56L164.03 154.52L163.97 154.54L163.92 154.56L163.86 154.58L163.8 154.6L163.75 154.62L163.69 154.64L163.63 154.66L163.57 154.68L163.52 154.7L163.46 154.72L163.4 154.74L163.34 154.76L163.28 154.78L163.22 154.8L163.17 154.81L163.11 154.83L163.05 154.85L162.99 154.87L162.93 154.88L162.87 154.9L162.81 154.92L162.75 154.93L162.69 154.95L162.63 154.96L162.57 154.98L162.51 155L162.45 155.01L162.39 155.02L162.33 155.04L162.27 155.05L162.21 155.07L161.94 155.13L161.68 155.18L161.41 155.22L161.14 155.27L160.88 155.3L160.61 155.33L160.35 155.36L160.08 155.38L159.82 155.39L159.55 155.4L159.29 155.41L159.03 155.41L158.76 155.4L158.5 155.39L158.24 155.38L157.98 155.36L157.72 155.33L157.47 155.3L157.21 155.27L156.95 155.23L156.7 155.19L156.45 155.14L156.2 155.08L155.94 155.03L155.7 154.96L155.45 154.9L155.2 154.82L154.96 154.75L154.71 154.67L154.47 154.58L154.23 154.49L153.99 154.93L153.96 154.94L153.94 154.94L153.92 154.95L153.91 154.95L153.89 154.96L153.87 154.96L153.86 154.97L153.84 154.97L153.82 154.98L153.81 154.98L153.79 154.99L153.78 155L153.76 155L153.75 155.01L153.73 155.01L153.71 155.02L153.7 155.03L153.69 155.04L153.67 155.04L153.66 155.05L153.64 155.06L153.63 155.07L153.62 155.08L153.6 155.09L153.59 155.1L153.58 155.11L153.57 155.12L153.56 155.13L153.55 155.14L153.54 155.15L153.5 155.2L153.46 155.24L153.43 155.29L153.4 155.34L153.37 155.4L153.34 155.45L153.31 155.5L153.28 155.56L153.25 155.62L153.22 155.67L153.2 155.73L153.17 155.79L153.15 155.86L153.12 155.92L153.1 155.98L153.07 156.05L153.05 156.11L153.03 156.18L153 156.24L152.98 156.31L152.96 156.38L152.94 156.44L152.91 156.51L152.89 156.58L152.87 156.65L152.84 156.72L152.82 156.78L152.79 156.85L152.77 156.92L152.74 156.99L152.71 157.06L152.7 157.09L152.69 157.12L152.68 157.15L152.68 157.19L152.67 157.22L152.66 157.25L152.65 157.28L152.64 157.31L152.63 157.34L152.61 157.43L152.6 157.46L152.59 157.5L152.58 157.53L152.57 157.56L152.56 157.59L152.56 157.62L152.55 157.65L152.54 157.68L152.53 157.71L152.52 157.74L152.51 157.77L152.5 157.81L152.49 157.84L152.47 157.87L152.46 157.9L152.45 157.93L152.44 157.97L152.42 158L152.41 158.03L152.4 158.05L152.39 158.06L152.39 158.08L152.38 158.09L152.37 158.11L152.36 158.12L152.36 158.14L152.34 158.18L152.3 158.25L152.29 158.28L152.27 158.31L152.25 158.36L152.21 158.42L152.18 158.47L152.15 158.52L152.11 158.56L152.07 158.61L152.03 158.65L151.99 158.69L151.95 158.73L151.9 158.77L151.85 158.8L151.81 158.83L151.76 158.86L151.71 158.89L151.66 158.91L151.61 158.93L151.56 158.95L151.5 158.96L151.45 158.98L151.4 158.99L151.34 159L151.29 159L151.23 159L151.18 159L151.13 159L151.07 158.99L151.02 158.98L150.97 158.96L150.91 158.95L150.86 158.93L150.81 158.91L150.76 158.88L150.71 158.85L150.67 158.82L150.62 158.79L150.58 158.75L150.54 158.72L150.5 158.68L150.47 158.64L150.44 158.59L150.41 158.55L150.38 158.5L150.35 158.45L150.33 158.4L150.31 158.35L150.29 158.3L150.28 158.25L150.26 158.2L150.25 158.14L150.24 158.09L150.24 158.03L150.24 157.97L150.24 157.92L150.24 157.86L150.24 157.8L150.25 157.74L150.26 157.68L150.28 157.63L150.29 157.57L150.31 157.51L150.33 157.45L150.36 157.4L150.37 157.38L150.38 157.35L150.4 157.32L150.41 157.28L150.43 157.24L150.44 157.22L150.45 157.19L150.46 157.17L150.47 157.15L150.48 157.14L150.49 157.12L150.49 157.11L150.51 157.08L150.53 157.05L150.55 157.02L150.56 156.99L150.58 156.96L150.6 156.93L150.62 156.9L150.63 156.87L150.65 156.84L150.67 156.82L150.69 156.79L150.71 156.76L150.72 156.74L150.74 156.71L150.76 156.68L150.78 156.66L150.8 156.63L150.82 156.61L150.84 156.58L150.86 156.56L150.89 156.5L150.91 156.48L150.93 156.45L150.95 156.43L150.97 156.4L150.99 156.37L151.01 156.35L151.03 156.32L151.04 156.29L151.06 156.26L151.1 156.2L151.14 156.14L151.18 156.08L151.22 156.02L151.25 155.96L151.29 155.9L151.33 155.85L151.36 155.79L151.4 155.73L151.43 155.67L151.47 155.62L151.5 155.56L151.54 155.5L151.57 155.45L151.6 155.39L151.63 155.34L151.66 155.28L151.69 155.23L151.72 155.17L151.75 155.12L151.78 155.06L151.81 155.01L151.84 154.96L151.86 154.9L151.89 154.85L151.91 154.8L151.94 154.74L151.96 154.69L151.98 154.64L152 154.59L152.02 154.54L152.03 154.52L152.03 154.5L152.04 154.48L152.04 154.46L152.04 154.45L152.04 154.43L152.04 154.41L152.04 154.39L152.04 154.37L152.04 154.35L152.04 154.33L152.03 154.31L152.03 154.29L152.03 154.27L152.02 154.25L152.02 154.23L152.02 154.21L152.01 154.19L152.01 154.17L152 154.14L151.99 154.12L151.99 154.1L151.98 154.08L151.98 154.07L151.97 154.05L151.96 154.03L151.96 154.01L151.95 153.99L151.94 153.97L151.94 153.95L151.93 153.94L152.12 153.47L151.85 153.31L151.58 153.14L151.32 152.96L151.06 152.78L150.8 152.59L150.55 152.39L150.31 152.19L150.06 151.98L149.83 151.77L149.59 151.55L149.36 151.33L149.14 151.1L148.92 150.87L148.71 150.63L148.5 150.38L148.3 150.14L148.1 149.88L147.91 149.62L147.73 149.36L147.55 149.09L147.38 148.81L147.21 148.53L147.05 148.25L146.89 147.96L146.74 147.67L146.6 147.37L146.47 147.07L146.34 146.77L146.22 146.46L146.11 146.15L146 145.83L145.54 145.91L145.52 145.9L145.51 145.89L145.47 145.87L145.45 145.86L145.44 145.85L145.42 145.84L145.4 145.83L145.38 145.82L145.36 145.81L145.34 145.8L145.32 145.79L145.3 145.78L145.28 145.77L145.26 145.76L145.24 145.75L145.22 145.74L145.2 145.74L145.18 145.73L145.16 145.72L145.13 145.72L145.11 145.71L145.09 145.7L145.06 145.7L145.04 145.7L145.02 145.69L145 145.69L144.97 145.69L144.95 145.69L144.93 145.69L144.87 145.7L144.82 145.71L144.76 145.72L144.71 145.73L144.65 145.74L144.6 145.75L144.54 145.77L144.48 145.78L144.43 145.79L144.37 145.81L144.31 145.82L144.26 145.84L144.2 145.86L144.14 145.87L144.08 145.89L144.02 145.91L143.96 145.93L143.9 145.95L143.84 145.97L143.78 145.99L143.72 146.01L143.66 146.03L143.6 146.05L143.53 146.07L143.47 146.1L143.41 146.12L143.34 146.14L143.28 146.16L143.21 146.19L143.14 146.21L143.08 146.24L143.04 146.25L143.01 146.26L142.98 146.27L142.95 146.29L142.92 146.3L142.89 146.31L142.86 146.32L142.83 146.34L142.8 146.35L142.72 146.39L142.69 146.4L142.66 146.41L142.63 146.42L142.6 146.44L142.57 146.45L142.54 146.46L142.51 146.47L142.48 146.48L142.45 146.5L142.42 146.51L142.39 146.52L142.36 146.53L142.32 146.54L142.29 146.55L142.26 146.56L142.23 146.57L142.19 146.58L142.16 146.59L142.12 146.6L142.12 146.6L142.1 146.61L142.09 146.61L142.07 146.61L142.06 146.62L142.04 146.62L142.01 146.63L141.99 146.63L141.97 146.64L141.9 146.65L141.87 146.66L141.85 146.66L141.84 146.66L141.83 146.67L141.83 146.67L141.81 146.67L141.75 146.68L141.69 146.69L141.63 146.7L141.57 146.7L141.51 146.7L141.45 146.7L141.39 146.69L141.34 146.69L141.28 146.67L141.22 146.66L141.17 146.65L141.12 146.63L141.06 146.61L141.01 146.59L140.96 146.56L140.92 146.53L140.87 146.5L140.82 146.47L140.78 146.44L140.74 146.4L140.7 146.37L140.67 146.33L140.63 146.29L140.6 146.24L140.57 146.2L140.54 146.15L140.52 146.1L140.49 146.05L140.47 146L140.46 145.95L140.44 145.9L140.43 145.84L140.42 145.79L140.42 145.73L140.42 145.68L140.42 145.62L140.42 145.57L140.43 145.52L140.44 145.46L140.46 145.41L140.47 145.36L140.49 145.31L140.51 145.26L140.54 145.21L140.56 145.16L140.59 145.12L140.62 145.07L140.66 145.03L140.69 144.98L140.73 144.94L140.77 144.9L140.81 144.87L140.86 144.83L140.91 144.8L140.95 144.77L141 144.74L141.06 144.71L141.11 144.68L141.17 144.66L141.22 144.64L141.28 144.62L141.34 144.6L141.35 144.6L141.36 144.6L141.39 144.59L141.42 144.58L141.49 144.57L141.51 144.56L141.53 144.56L141.56 144.55L141.57 144.55L141.59 144.54L141.6 144.54L141.62 144.54L141.63 144.53L141.65 144.53L141.68 144.52L141.72 144.52L141.75 144.51L141.79 144.51L141.82 144.5L141.86 144.5L141.89 144.49L141.92 144.49L141.96 144.49L141.99 144.49L142.02 144.48L142.05 144.48L142.09 144.48L142.12 144.48L142.15 144.47L142.18 144.47L142.21 144.47L142.25 144.47L142.28 144.47L142.37 144.47L142.41 144.46L142.44 144.46L142.47 144.46L142.5 144.46L142.53 144.46L142.57 144.46L142.6 144.45L142.63 144.45L142.67 144.45L142.74 144.44L142.81 144.43L142.88 144.43L142.95 144.42L143.02 144.41L143.08 144.4L143.15 144.4L143.22 144.39L143.28 144.38L143.35 144.37L143.41 144.37L143.48 144.36L143.54 144.35L143.6 144.34L143.66 144.33L143.72 144.32L143.78 144.31L143.84 144.3L143.9 144.29L143.96 144.28L144.02 144.27L144.08 144.26L144.13 144.25L144.19 144.24L144.25 144.22L144.3 144.21L144.36 144.2L144.41 144.18L144.46 144.17L144.52 144.15L144.57 144.14L144.59 144.13L144.6 144.12L144.62 144.11L144.64 144.1L144.65 144.09L144.67 144.08L144.69 144.06L144.7 144.05L144.72 144.04L144.73 144.02L144.75 144.01L144.77 143.99L144.78 143.98L144.8 143.96L144.81 143.94L144.83 143.93L144.84 143.91L144.86 143.89L144.87 143.88L144.89 143.86L144.9 143.84L144.91 143.82L144.93 143.81L144.94 143.79L144.95 143.77L144.97 143.75L145 143.71L145.01 143.69L145.03 143.68L145.47 143.55L145.43 143.21L145.39 142.88L145.36 142.55L145.34 142.21L145.33 141.88L145.33 141.55L145.33 141.23L145.35 140.9L145.37 140.57L145.4 140.25L145.43 139.92L145.47 139.6L145.53 139.28L145.58 138.96L145.65 138.65L145.72 138.33L145.8 138.02L145.89 137.71L145.98 137.41L146.08 137.1L146.19 136.8L146.31 136.5L146.43 136.21L146.56 135.92L146.69 135.63L146.83 135.34L146.98 135.06L147.14 134.78L147.3 134.51L147.46 134.24L147.64 133.97L147.3 133.66L147.3 133.65L147.29 133.64L147.29 133.59L147.28 133.57L147.28 133.55L147.28 133.53L147.27 133.51L147.27 133.49L147.27 133.47L147.26 133.45L147.26 133.43L147.25 133.41L147.25 133.38L147.24 133.36L147.23 133.34L147.23 133.32L147.22 133.3L147.21 133.27L147.2 133.25L147.2 133.23L147.19 133.21L147.18 133.19L147.16 133.17L147.15 133.15L147.14 133.13L147.13 133.11L147.11 133.09L147.1 133.07L147.08 133.05L147.04 133.01L147 132.98L146.96 132.94L146.92 132.9L146.87 132.87L146.83 132.83L146.78 132.8L146.74 132.76L146.69 132.72L146.65 132.69L146.6 132.65L146.55 132.62L146.5 132.58L146.45 132.55L146.4 132.51L146.35 132.48L146.3 132.45L146.25 132.41L146.19 132.38L146.14 132.34L146.09 132.31L146.03 132.27L145.97 132.24L145.92 132.2L145.86 132.16L145.8 132.13L145.75 132.09L145.69 132.05L145.63 132.02L145.57 131.98L145.51 131.94L145.48 131.93L145.45 131.91L145.42 131.89L145.39 131.88L145.36 131.86L145.33 131.85L145.3 131.83L145.28 131.82L145.25 131.8L145.22 131.78L145.16 131.76L145.14 131.74L145.11 131.73L145.08 131.71L145.05 131.69L145.02 131.68L145 131.66L144.97 131.65L144.94 131.63L144.91 131.62L144.88 131.6L144.85 131.58L144.83 131.56L144.8 131.55L144.77 131.53L144.74 131.51L144.71 131.49L144.68 131.47L144.65 131.45L144.62 131.43L144.62 131.42L144.61 131.41L144.59 131.4L144.59 131.4L144.57 131.39L144.56 131.38L144.54 131.36L144.53 131.35L144.52 131.35L144.51 131.33L144.49 131.32L144.43 131.27L144.4 131.25L144.4 131.25L144.39 131.24L144.39 131.24L144.34 131.2L144.3 131.16L144.25 131.11L144.21 131.07L144.17 131.02L144.14 130.97L144.11 130.93L144.07 130.88L144.05 130.82L144.02 130.77L144 130.72L143.98 130.67L143.96 130.61L143.95 130.56L143.94 130.5L143.93 130.45L143.92 130.39L143.92 130.34L143.92 130.28L143.92 130.23L143.92 130.18L143.93 130.12L143.94 130.07L143.95 130.02L143.97 129.96L143.99 129.91L144.01 129.86L144.04 129.81L144.06 129.77L144.09 129.72L144.13 129.67L144.15 129.65L144.17 129.63L144.19 129.6L144.21 129.58L144.24 129.56L144.26 129.54L144.28 129.52L144.31 129.5L144.33 129.48L144.36 129.47L144.38 129.45L144.41 129.43L144.44 129.42L144.46 129.41L144.49 129.39L144.52 129.38L144.55 129.37L144.58 129.36L144.61 129.35L144.64 129.34L144.67 129.33L144.7 129.33L144.73 129.32L144.76 129.31L144.79 129.31L144.82 129.31L144.85 129.3L144.88 129.3L144.91 129.3L144.94 129.3L144.97 129.3L145 129.3L145.02 129.3L145.05 129.3L145.07 129.31L145.1 129.31L145.12 129.31L145.15 129.32L145.17 129.32L145.2 129.33L145.22 129.33L145.25 129.34L145.27 129.35L145.29 129.36L145.32 129.36L145.34 129.37L145.37 129.38L145.39 129.39L145.42 129.4L145.44 129.41L145.46 129.42L145.49 129.43L145.51 129.45L145.53 129.46L145.56 129.47L145.58 129.49L145.6 129.5L145.63 129.51L145.65 129.53L145.67 129.55L145.69 129.56L145.71 129.58L145.74 129.6L145.82 129.66L145.85 129.69L145.87 129.7L145.89 129.72L145.92 129.74L145.93 129.75L145.94 129.76L145.95 129.77L145.98 129.79L146 129.81L146.03 129.84L146.05 129.86L146.08 129.89L146.1 129.91L146.13 129.93L146.15 129.96L146.17 129.98L146.2 130L146.22 130.03L146.24 130.05L146.26 130.08L146.28 130.1L146.31 130.12L146.33 130.15L146.35 130.17L146.37 130.19L146.39 130.22L146.41 130.24L146.45 130.29L146.47 130.31L146.49 130.34L146.52 130.36L146.54 130.39L146.56 130.41L146.58 130.44L146.6 130.46L146.63 130.48L146.65 130.51L146.7 130.56L146.75 130.61L146.8 130.66L146.85 130.71L146.9 130.76L146.94 130.81L146.99 130.86L147.04 130.9L147.08 130.95L147.13 130.99L147.18 131.04L147.22 131.08L147.27 131.13L147.31 131.17L147.36 131.21L147.4 131.26L147.45 131.3L147.49 131.34L147.54 131.38L147.58 131.42L147.63 131.46L147.67 131.49L147.72 131.53L147.76 131.57L147.81 131.6L147.85 131.64L147.9 131.67L147.94 131.71L147.99 131.74L148.03 131.77L148.08 131.8L148.1 131.82L148.13 131.83L148.15 131.84L148.17 131.85L148.2 131.86L148.22 131.87L148.24 131.87L148.26 131.88L148.28 131.88L148.31 131.89L148.33 131.89L148.35 131.89L148.37 131.89L148.39 131.9L148.41 131.9L148.43 131.9L148.45 131.9L148.47 131.9L148.49 131.89L148.51 131.89L148.52 131.89L148.54 131.89L148.56 131.89L148.58 131.88L148.6 131.88L148.62 131.88L148.66 131.87L148.67 131.87L148.69 131.87L148.71 131.86L148.72 131.87L148.74 131.89L148.76 131.9L148.78 131.92L148.81 131.93L148.83 131.95L148.86 131.97L148.9 132L148.93 132.02L148.96 132.04L148.98 132.05L149 132.07L149.02 132.08L149.03 132.09L149.06 132.11L149.07 132.12L149.09 132.14L149.27 131.95L149.45 131.77L149.63 131.59L149.82 131.42L150.01 131.25L150.21 131.08L150.4 130.92L150.6 130.76L150.81 130.6L151.01 130.45L151.22 130.3L151.44 130.15L151.65 130.01L151.87 129.87L152.09 129.74L152.32 129.61L152.55 129.48L152.78 129.36L153.01 129.24L153.25 129.13L153.49 129.02L153.73 128.91L153.98 128.81L154.22 128.71L154.47 128.62L154.73 128.54L154.98 128.45L155.24 128.38L155.5 128.3L155.77 128.24L156.03 128.17L156.09 128.16L156.15 128.14L156.22 128.13L156.28 128.12L156.34 128.11L156.4 128.09L156.46 128.08L156.53 128.07L156.59 128.06L156.65 128.05L156.71 128.04L156.77 128.03L156.84 128.01L156.9 128L156.96 128L157.02 127.99L157.08 127.98L157.15 127.97L157.21 127.96L157.27 127.95L157.33 127.94L157.39 127.93L157.46 127.93L157.52 127.92L157.58 127.91L157.64 127.91L157.7 127.9L157.76 127.89L157.83 127.89L157.89 127.88L157.95 127.88L157.97 127.43L157.99 127.42L158 127.4L158.02 127.39L158.03 127.37L158.04 127.36L158.06 127.34L158.07 127.33L158.09 127.31L158.1 127.3L158.11 127.28L158.13 127.26L158.14 127.24L158.15 127.23L158.16 127.21L158.18 127.19L158.19 127.17L158.2 127.16L158.21 127.14L158.22 127.12L158.23 127.1L158.25 127.08L158.25 127.06L158.26 127.04L158.27 127.02L158.28 127L158.29 126.98L158.3 126.96L158.3 126.94L158.31 126.92L158.31 126.9L158.32 126.88L158.32 126.82L158.33 126.77L158.33 126.71L158.33 126.66L158.33 126.6L158.33 126.54L158.33 126.49L158.33 126.43L158.33 126.37L158.33 126.31L158.33 126.25L158.33 126.19L158.32 126.13L158.32 126.07L158.31 126.01L158.31 125.95L158.3 125.89L158.3 125.82L158.29 125.76L158.29 125.7L158.28 125.63L158.27 125.57L158.27 125.5L158.26 125.44L158.25 125.37L158.24 125.3L158.24 125.23L158.23 125.17L158.22 125.1L158.21 125.02L158.2 124.95L158.2 124.92L158.19 124.89L158.19 124.85L158.18 124.82L158.18 124.79L158.17 124.76L158.16 124.73L158.16 124.69L158.15 124.66L158.14 124.57L158.13 124.54L158.12 124.51L158.12 124.48L158.11 124.44L158.11 124.41L158.1 124.38L158.1 124.35L158.09 124.32L158.09 124.29L158.08 124.25L158.08 124.22L158.08 124.19L158.07 124.15L158.07 124.12L158.07 124.09L158.06 124.05L158.06 124.02L158.06 123.98L158.06 123.94L158.06 123.93L158.06 123.91L158.06 123.9L158.06 123.86L158.06 123.84L158.06 123.83L158.06 123.8L158.06 123.74L158.06 123.72L158.06 123.69L158.06 123.67L158.06 123.66L158.06 123.65L158.06 123.64L158.06 123.58L158.06 123.52L158.07 123.46L158.08 123.4L158.09 123.34L158.11 123.28L158.12 123.22L158.15 123.17L158.17 123.12L158.19 123.06L158.22 123.01L158.25 122.96L158.28 122.92L158.31 122.87L158.35 122.83L158.39 122.79L158.43 122.75L158.47 122.71L158.51 122.68L158.55 122.64L158.6 122.61L158.64 122.59L158.69 122.56L158.74 122.54L158.79 122.52L158.84 122.5L158.9 122.49L158.95 122.48L159.01 122.47L159.06 122.46L159.12 122.46L159.17 122.46L159.23 122.47ZM158.63 146.81L158.44 146.96L158.29 147.17L158.29 147.17L155.59 152.04L157.03 152.42L158.51 152.61L160.04 152.59L161.58 152.35L161.86 152.28L162.13 152.21L162.4 152.13L162.66 152.05L159.96 147.16L159.94 147.16L159.86 147.04L159.77 146.93L159.65 146.84L159.52 146.76L159.41 146.72L159.3 146.69L159.19 146.67L159.08 146.67L158.85 146.71L158.63 146.81ZM163.65 144.41L163.56 144.43L163.47 144.46L163.38 144.49L163.09 144.71L162.91 145.01L162.85 145.36L162.93 145.71L162.92 145.72L165.07 150.9L166.52 149.8L167.75 148.48L168.75 146.98L169.49 145.34L163.96 144.41L163.95 144.42L163.9 144.41L163.85 144.4L163.79 144.4L163.74 144.4L163.65 144.41ZM154.36 144.43L154.32 144.43L154.27 144.44L154.26 144.43L148.78 145.36L149.55 147.03L150.56 148.52L151.78 149.81L153.19 150.88L155.32 145.75L155.3 145.73L155.35 145.59L155.37 145.45L155.37 145.3L155.35 145.15L155.23 144.86L155.02 144.63L154.76 144.48L154.45 144.42L154.41 144.42L154.36 144.43ZM157.2 141.18L157.58 142.84L159.12 143.58L160.65 142.84L161.03 141.19L159.97 139.86L158.26 139.86L157.2 141.18ZM148.39 139.13L148.14 140.92L148.18 142.76L153.53 141.22L153.53 141.2L153.67 141.15L153.79 141.08L153.91 140.99L154.02 140.88L154.18 140.56L154.22 140.21L154.12 139.88L153.9 139.59L153.9 139.57L149.73 135.84L148.93 137.42L148.39 139.13ZM164.33 139.57L164.23 139.67L164.14 139.79L164.08 139.92L164.03 140.06L164.02 140.43L164.14 140.75L164.37 141.02L164.7 141.18L164.7 141.2L170.07 142.75L170.12 141.87L170.1 140.98L170.01 140.09L169.84 139.19L169.65 138.52L169.36 137.74L168.97 136.85L168.47 135.84L164.33 139.56L164.33 139.57ZM157.22 130.78L156.94 130.83L156.66 130.89L155.16 131.34L153.77 131.99L152.51 132.8L151.39 133.76L155.96 137L155.96 136.99L156.09 137.07L156.22 137.13L156.36 137.16L156.52 137.17L156.87 137.1L157.16 136.91L157.37 136.63L157.45 136.28L157.47 136.27L157.79 130.7L157.51 130.73L157.22 130.78ZM160.77 136.26L160.79 136.4L160.83 136.54L160.89 136.68L160.97 136.8L161.25 137.04L161.58 137.15L161.93 137.13L162.26 136.97L162.27 136.98L166.81 133.76L165.43 132.62L163.89 131.71L162.22 131.07L160.45 130.7L160.77 136.26L160.77 136.26Z" id="bjKNaWRJi"></path></defs><g><g><use xlink:href="#boKp2Ser5" opacity="1" fill="#939292" fill-opacity="1"></use><g><use xlink:href="#boKp2Ser5" opacity="1" fill-opacity="0" stroke="#ffffff" stroke-width="0" stroke-opacity="1"></use></g></g><g><use xlink:href="#b4cr4pM2Hn" opacity="1" fill="#5d5d5d" fill-opacity="1"></use><g><use xlink:href="#b4cr4pM2Hn" opacity="1" fill-opacity="0" stroke="#ffffff" stroke-width="0" stroke-opacity="1"></use></g></g><g><use xlink:href="#i66EfYV1d1" opacity="1" fill="#000000" fill-opacity="1"></use><g><use xlink:href="#i66EfYV1d1" opacity="1" fill-opacity="0" stroke="#ffffff" stroke-width="0" stroke-opacity="1"></use></g></g><g><use xlink:href="#bjKNaWRJi" opacity="1" fill="#ffffff" fill-opacity="1"></use><g><use xlink:href="#bjKNaWRJi" opacity="1" fill-opacity="0" stroke="#ffffff" stroke-width="0.25" stroke-opacity="1"></use></g></g></g></svg>