<?xml version="1.0" encoding="UTF-8" standalone="no"?>
<svg
   xmlns:dc="http://purl.org/dc/elements/1.1/"
   xmlns:cc="http://creativecommons.org/ns#"
   xmlns:rdf="http://www.w3.org/1999/02/22-rdf-syntax-ns#"
   xmlns:svg="http://www.w3.org/2000/svg"
   xmlns="http://www.w3.org/2000/svg"
   xmlns:sodipodi="http://sodipodi.sourceforge.net/DTD/sodipodi-0.dtd"
   xmlns:inkscape="http://www.inkscape.org/namespaces/inkscape"
   id="Layer_1"
   style="zoom: 1;"
   data-name="Layer 1"
   viewBox="0 0 600 600"
   width="350"
   version="1.1"
   sodipodi:docname="logo.svg"
   inkscape:version="0.92.3 (2405546, 2018-03-11)">
  <metadata
     id="metadata3880">
    <rdf:RDF>
      <cc:Work
         rdf:about="">
        <dc:format>image/svg+xml</dc:format>
        <dc:type
           rdf:resource="http://purl.org/dc/dcmitype/StillImage" />
      </cc:Work>
    </rdf:RDF>
  </metadata>
  <sodipodi:namedview
     pagecolor="#ffffff"
     bordercolor="#666666"
     borderopacity="1"
     objecttolerance="10"
     gridtolerance="10"
     guidetolerance="10"
     inkscape:pageopacity="0"
     inkscape:pageshadow="2"
     inkscape:window-width="1920"
     inkscape:window-height="1052"
     id="namedview3878"
     showgrid="false"
     inkscape:zoom="1.4066667"
     inkscape:cx="175"
     inkscape:cy="300"
     inkscape:window-x="0"
     inkscape:window-y="0"
     inkscape:window-maximized="1"
     inkscape:current-layer="Layer_1" />
  <defs
     id="defs3851">
    <style
       id="style3849">.cls-1{fill:#00aae1;}.cls-2{fill:#383838;}</style>
  </defs>
  <polygon
     points="299.63 143.31 235.45 221.15 195.86 232.7 300.12 72 404.39 232.7 364.8 221.15 299.63 143.31"
     id="polygon3865" />
  <polygon
     points="185.95 319.05 121.77 396.88 82.17 408.44 186.44 247.73 290.71 408.44 251.12 396.88 185.95 319.05"
     id="polygon3867" />
  <polygon
     points="413.07 319.05 348.88 396.88 309.29 408.44 413.56 247.73 517.83 408.44 478.24 396.88 413.07 319.05"
     id="polygon3869" />
  <path
     class="cls-2"
     d="M299.63,185.12l-46.95,44.74s19.16,37.64,46.95,50.88c27.79-13.24,47-50.88,47-50.88Z"
     id="path3871" />
  <path
     class="cls-2"
     d="M186.44,360.63l-47,44.74s19.17,37.64,47,50.88c27.79-13.24,47-50.88,47-50.88Z"
     id="path3873" />
  <path
     class="cls-2"
     d="M413.56,360.63l-47,44.74s19.17,37.64,47,50.88c27.79-13.24,47-50.88,47-50.88Z"
     id="path3875" />
</svg>
