<?xml version="1.0" encoding="UTF-8"?>
<svg width="1911px" height="895px" viewBox="0 0 1911 895" version="1.1" xmlns="http://www.w3.org/2000/svg" xmlns:xlink="http://www.w3.org/1999/xlink">
    <!-- Generator: Sketch 57.1 (83088) - https://sketch.com -->
    <title>Taieri</title>
    <desc>Created with Sketch.</desc>
    <g id="Patterns" stroke="none" stroke-width="1" fill="none" fill-rule="evenodd" opacity="0.196730841" stroke-linecap="round" stroke-linejoin="round">
        <g id="Taieri" transform="translate(-9.000000, -407.000000)" stroke-width="13">
            <g transform="translate(15.000000, 414.000000)">
                <path d="M1903,317 L1903,148.680945 C1903,115.719685 1876.132,89 1843,89 C1809.868,89 1783,115.719685 1783,148.680945 L1783,174.733984" id="Shape" stroke="#FB6340"></path>
                <path d="M1773.98822,725 C1773.98822,758.688911 1800.85977,786 1834.00014,786 C1867.14051,786 1894,758.688911 1894,725 C1894,691.311089 1867.14051,664 1834.00014,664 L1633,664" id="Shape" stroke="#2DCE89"></path>
                <path d="M1803.64324,582 C1859.62873,582 1905,535.884912 1905,479 C1905,422.115088 1859.62873,376 1803.64324,376 L1538,376" id="Shape" stroke="#2DCE89" transform="translate(1721.500000, 479.000000) scale(1, -1) translate(-1721.500000, -479.000000) "></path>
                <path d="M1840,450 L1755.99321,450 C1695.24247,450 1646,499.69663 1646,561" id="Shape" stroke="#FB6340"></path>
                <path d="M990,138.906103 C990,172.094761 1016.86303,199 1050,199 C1083.13697,199 1110,172.094761 1110,138.906103 L1110,71" id="Shape" stroke="#2DCE89" transform="translate(1050.000000, 135.000000) scale(-1, -1) translate(-1050.000000, -135.000000) "></path>
                <path d="M1590,72 L1393.62712,72 C1355.17315,72 1324,102.444655 1324,140" id="Shape" stroke="#2DCE89"></path>
                <path d="M701.840065,198.95057 L691.143341,198.95057 C659.5844,198.95057 634,173.332706 634,141.746566 C634,110.148392 659.5844,84.5305284 691.143341,84.5305284 L818.722806,84.5305284 C865.353311,84.5305284 903.154812,46.6873239 903.154812,-1.32160949e-12" id="Shape" stroke="#FB6340" transform="translate(768.577406, 99.475285) scale(-1, 1) translate(-768.577406, -99.475285) "></path>
                <path d="M1494.84006,239 L1484.14334,239 C1452.5844,239 1427,213.382136 1427,181.795995 C1427,150.197822 1452.5844,124.579958 1484.14334,124.579958 L1611.72281,124.579958 C1658.35331,124.579958 1696.15481,86.7367535 1696.15481,40.0494297" id="Shape-Copy-3" stroke="#FB6340"></path>
                <ellipse id="Shape" stroke="#F5365C" cx="576" cy="134.5" rx="58" ry="57.5"></ellipse>
                <circle id="Shape" stroke="#2DCE89" cx="139" cy="152" r="63"></circle>
                <path d="M1212.5,82 C1180.74323,82 1155,107.743053 1155,139.5 C1155,171.256947 1180.74323,197 1212.5,197 C1244.25677,197 1270,171.256947 1270,139.5 L1270,82" id="Shape" stroke="#2DCE89"></path>
                <path d="M231,139.5 C231,181.749516 265.026457,216 307,216 C348.973543,216 383,181.749516 383,139.5 C383,97.2502453 348.973543,63 307,63 L231,63" id="Shape" stroke="#F5365C"></path>
                <path d="M67.5,745.5824 C30.7730685,745.5824 1,716.1272 1,679.7912 C1,643.4552 30.7730685,614 67.5,614 C104.227171,614 134,643.4552 134,679.7912 L134,881" id="Shape" stroke="#2DCE89"></path>
                <path d="M58.5,447.708075 C26.7435885,447.708075 1,473.06877 1,504.354037 C1,535.639304 26.7435885,561 58.5,561 C90.2564115,561 116,535.639304 116,504.354037 L116,273" id="Shape" stroke="#FB6340"></path>
                <path d="M455,216 L455,124.882121 C455,72.4184848 495.9752,28.4696364 551,17" id="Shape" stroke="#2DCE89"></path>
                <path d="M36.5,205 C36.5,214.313046 36.5,331.547503 36.5,389" id="Shape" stroke="#2DCE89"></path>
                <path d="M1843,246.9208 L1843,267.2032 C1843,295.81 1819.73657,319 1791.05744,319 L1791.05744,319 C1762.36628,319 1739.10285,295.81 1739.10285,267.2032 L1739.10285,250.4032 C1739.10285,222.0136 1716.01994,199 1687.55744,199 L1687.55744,199 C1659.08291,199 1636,222.0136 1636,250.4032 L1636,271.0792" id="Shape" stroke="#F5365C"></path>
            </g>
        </g>
    </g>
</svg>