<svg viewBox="0 0 811.42 964.86" xmlns="http://www.w3.org/2000/svg"><g transform="translate(-18.72 -1156.27)"><path d="m797.42 2061.36a29.19 29.19 0 1 1 0 58.38h-29.19v-29.19a29.19 29.19 0 0 1 29.19-29.19z" fill="#5e72e4"/><path d="m826.36 2059.15-2.12 13.85-13.82-2.12a21 21 0 0 1 -17.55-23.91l2.12-13.82 13.82 2.12a21 21 0 0 1 17.55 23.88z" fill="#5e72e4"/><path d="m755.45 1156.27a74.7 74.7 0 1 0 0 149.39h74.69v-74.66a74.69 74.69 0 0 0 -74.69-74.73z" fill="#f4f5f7"/><path d="m785.47 1272.82a44.67 44.67 0 0 0 0 89.33h44.67v-44.67a44.66 44.66 0 0 0 -44.67-44.66z" fill="#5e72e4"/><path d="m755.45 1184.61a45.61 45.61 0 1 0 45.6 45.6 45.61 45.61 0 0 0 -45.6-45.6z" fill="#172b4d"/><g fill="#5e72e4"><path d="m682.75 1215a26.7 26.7 0 1 0 26.7 26.7 26.69 26.69 0 0 0 -26.7-26.7z"/><path d="m58.65 1533.23a9.95 9.95 0 1 0 9.94 9.94 9.94 9.94 0 0 0 -9.94-9.94z"/><path d="m740.81 1782.57a9.94 9.94 0 1 0 9.94 9.94 9.95 9.95 0 0 0 -9.94-9.94z"/><path d="m165.42 2049.45v71.68h-71.69a72.39 72.39 0 0 1 -72.4-72.4v-71.73h71.67a72.41 72.41 0 0 1 72.42 72.45z"/></g><path d="m134.28 2049.09a42.36 42.36 0 1 1 -84.71 0v-42.36h42.35a42.36 42.36 0 0 1 42.36 42.36z" fill="#172b4d"/><path d="m90.76 1941.32v28.82h-28.82a43.23 43.23 0 0 1 -43.22-43.23v-28.82h28.82a43.22 43.22 0 0 1 43.22 43.23z" fill="#5e72e4"/></g></svg>